# xmcd CD database file
#
# Track frame offsets:
#	150
#	28963
#	58425
#	88705
#	117265
#	149615
#	187608
#	220345
#	251603
#	280360
#
# Disc length: 4120 seconds
#
# Revision: 2
# Processed by: cddbd v1.5.2PL0 Copyright (c) Steve Scherf et al.
# Submitted via: CDex 1.70beta1
#
DISCID=9d10160a
DTITLE=Madonna - You Can Dance
DYEAR=1987
DGENRE=Pop
TTITLE0=Spotlight
TTITLE1=Holiday
TTITLE2=Everybody
TTITLE3=Physical Attraction
TTITLE4=Over And Over
TTITLE5=Into The Groove
TTITLE6=Where's The Party
TTITLE7=Holiday (Dub Version)
TTITLE8=Into The Groove (Dub Version)
TTITLE9=Where's The Party (Dub Version)
EXTD=YEAR: 1987
EXTT0=
EXTT1=
EXTT2=
EXTT3=
EXTT4=
EXTT5=
EXTT6=
EXTT7=
EXTT8=
EXTT9=
PLAYORDER=
